# xmcd
#
# Track frame offsets: 
#        182
#        18392
#        34912
#        53365
#        69040
#        87915
#        107312
#        129602
#        147177
#        164510
#        181375
#        197790
#        213275
#        228527
#        247117
#        264312
#        282447
#        299095
#        314642
#        328882
#
# Disc length: 4612 seconds
#
# Revision: 0
# Processed by: cddbd v1.5.2PL0 Copyright (c) Steve Scherf et al.
# Submitted via: ExactAudioCopy v0.95b4
#
DISCID=2e120214
DTITLE=Various Artist - Hitbox volume 9 (1996)
DYEAR=1996
DGENRE=Karuwatcho
TTITLE0=Babylon Zoo - Spaceman
TTITLE1=Backstreet Boys - We've Got It Goin' On
TTITLE2=Luniz - I Got 5 On It
TTITLE3=Tina Turner - Goldeneye
TTITLE4=Andrea Bocelli - Con Te Partiro
TTITLE5=Oasis - Wonderwall
TTITLE6=Everything But The Girl - Missing (Todd Terry Radio Edit)
TTITLE7=Snap! - Rame
TTITLE8=Robert Miles - Children
TTITLE9=Right Said Fred - Living On A Dream
TTITLE10=Ace Of Base - Beautiful Life
TTITLE11=Double Vision - Knockin'
TTITLE12=Me and My - Baby Boy
TTITLE13=Captain Jack - Captain Jack
TTITLE14=CB Milton - Show Me The Way
TTITLE15=Technotronic - I Want You By My Side
TTITLE16=2 Unlimited - Jump For Joy
TTITLE17=2 Fabiola - Lift U Up
TTITLE18=Gusto - Disco's Revenge
TTITLE19=Double Vision - All Right
EXTD=
EXTT0=
EXTT1=
EXTT2=
EXTT3=
EXTT4=
EXTT5=
EXTT6=
EXTT7=
EXTT8=
EXTT9=
EXTT10=
EXTT11=
EXTT12=
EXTT13=
EXTT14=
EXTT15=
EXTT16=
EXTT17=
EXTT18=
EXTT19=
PLAYORDER=
